<svg width="44" height="44" xmlns="http://www.w3.org/2000/svg" fill="none"><defs><linearGradient y2=".777" x2=".561" y1=".189" x1=".394" id="prefix__a"><stop stop-color="#18E66B" offset=".26"/><stop stop-color="#0CA84B" offset=".89"/></linearGradient></defs><g stroke="null"><path fill="url(#prefix__a)" d="M14.983 26.16A34.224 34.224 0 012.79 30.047c.15.3.307.598.473.894 5.702 10.12 18.69 13.789 29.011 8.195 10.32-5.594 14.059-18.332 8.356-28.454a21.055 21.055 0 00-8.612-8.329c-1.595 9.728-7.562 18.67-17.037 23.805l.002.002z"/><path fill="#18E76B" d="M11.774 18.716C8.79 13.423 9.05 7.233 11.902 2.342c-.094.049-.19.093-.283.144C1.302 8.08-2.44 20.818 3.264 30.94c5.703 10.12 18.69 13.79 29.01 8.195 8.54-4.63 12.57-14.154 10.472-23.037a16.708 16.708 0 01-7.847 9.151c-8.226 4.457-18.58 1.534-23.125-6.532z"/></g></svg>