<svg width="44" height="44" xmlns="http://www.w3.org/2000/svg" fill="none"><defs><linearGradient y2=".777" x2=".561" y1=".189" x1=".394" id="prefix__a"><stop stop-color="#6E4FEC" offset=".26"/><stop stop-color="#34179E" offset=".89"/></linearGradient></defs><g stroke="null"><path fill="url(#prefix__a)" d="M15.042 26.107a34.196 34.196 0 01-12.183 3.884c.15.3.307.598.473.893 5.697 10.112 18.674 13.778 28.987 8.189 10.31-5.59 14.047-18.317 8.35-28.431a21.038 21.038 0 00-8.606-8.322c-1.594 9.72-7.556 18.654-17.023 23.785l.002.002z"/><path fill="#7953FF" d="M11.835 18.67c-2.98-5.29-2.72-11.474.128-16.361-.093.05-.19.093-.282.144C1.372 8.043-2.366 20.77 3.333 30.883 9.031 40.993 22.008 44.66 32.32 39.07c8.533-4.626 12.558-14.142 10.463-23.019a16.694 16.694 0 01-7.841 9.144c-8.218 4.454-18.56 1.533-23.104-6.526h-.002z"/></g></svg>