<svg xmlns="http://www.w3.org/2000/svg" width="144" height="40" viewBox="0 0 144 40" fill="none">
<path d="M36.7586 37.9978L33.9539 33.1191C38.9145 30.2746 40.632 23.9287 37.7845 18.9743C34.937 14.0189 28.5834 12.3022 23.625 15.1477L20.8203 10.269C24.5281 8.14271 28.8432 7.58652 32.9686 8.7011C37.0951 9.81569 40.541 12.4697 42.6695 16.1736C47.0634 23.8181 44.4121 33.6096 36.7586 38V37.9978Z" fill="#1B54FF"/>
<path d="M12.1197 31.2978C7.99315 30.1833 4.54727 27.5293 2.4188 23.8253C-1.97515 16.1809 0.676124 6.38937 8.32853 2L11.1332 6.87878C6.17376 9.72327 4.4552 16.0692 7.30266 21.0235C10.1512 25.9789 16.5037 27.6946 21.4621 24.8501L24.2669 29.7289C20.5903 31.8379 16.2052 32.4018 12.1197 31.2978Z" fill="#1B54FF"/>
<path d="M14.7092 21.4436C17.4415 21.4436 19.6566 19.2309 19.6566 16.5014C19.6566 13.7718 17.4415 11.5591 14.7092 11.5591C11.9768 11.5591 9.76172 13.7718 9.76172 16.5014C9.76172 19.2309 11.9768 21.4436 14.7092 21.4436Z" fill="#00B56E"/>
<path d="M30.0568 27.5735C32.7892 27.5735 35.0042 25.3608 35.0042 22.6312C35.0042 19.9017 32.7892 17.689 30.0568 17.689C27.3244 17.689 25.1094 19.9017 25.1094 22.6312C25.1094 25.3608 27.3244 27.5735 30.0568 27.5735Z" fill="#00B5DA"/>
<path d="M51 28.0134L54.6272 25.1575C55.4378 26.3084 57.7843 28.3968 61.0701 28.3968C64.5685 28.3968 65.1665 26.2652 65.1665 25.7118C65.1665 21.6196 51.6412 23.1969 51.6412 14.2889C51.6412 11.9449 53.3904 7.42627 60.4305 7.42627C66.3186 7.42627 68.7505 10.8364 69.3909 11.9018L66.0204 14.459C64.7404 12.6262 62.2229 12.0296 60.1323 12.0296C58.3399 12.0296 56.8041 13.1804 56.8041 14.5868C56.8041 19.5312 70.3295 16.8885 70.3295 26.0097C70.3295 28.4814 68.0254 33.0001 60.8574 33.0001C54.7135 33.0001 52.0249 29.7608 51.0008 28.0134H51Z" fill="white"/>
<path d="M86.1475 22.4727C86.1475 21.3642 86.1475 18.5938 82.8193 18.5938C79.7469 18.5938 79.0642 21.7052 79.0642 22.8137V32.5315H73.9012V7H79.0642V16.0365C80.8566 13.9904 83.8858 13.9904 84.184 13.9904C91.0106 13.9904 91.3096 20.5967 91.3096 20.8954V32.5315H86.1467V22.4727H86.1475Z" fill="white"/>
<path d="M98.217 7.08521C99.8383 7.08521 101.161 8.40614 101.161 10.0266C101.161 11.647 99.8391 12.9679 98.217 12.9679C96.5949 12.9679 95.2726 11.647 95.2726 10.0266C95.2726 8.40614 96.5949 7.08521 98.217 7.08521ZM95.614 14.459H100.777V32.5313H95.614V14.459Z" fill="white"/>
<path d="M116.588 32.5315L110.487 24.859V32.5315H105.324V7H110.487V21.8761L115.82 14.46H122.049L115.862 23.3257L123.201 32.5323H116.588V32.5315Z" fill="white"/>
<path d="M124.596 24.3477V14.459H129.759V24.5178C129.759 25.6263 130.015 28.3967 133.343 28.3967C136.671 28.3967 136.927 25.6263 136.927 24.5178V14.459H142.09V24.3477C142.09 26.607 141.279 33.0001 133.343 33.0001C125.406 33.0001 124.596 26.6062 124.596 24.3477Z" fill="white"/>
</svg>